<svg id="_Слой_1" data-name="Слой_1" xmlns="http://www.w3.org/2000/svg" version="1.1" viewBox="0 0 800.018 800.799" transform="rotate(270)">
  <!-- Generator: Adobe Illustrator 30.5.1, SVG Export Plug-In . SVG Version: 2.1.4 Build 3)  -->
  <defs>
    <style>
      .st0 {
        fill: #2c3552;
      }

      .st1 {
        fill: #fff;
      }
    </style>
  </defs>
  <rect class="st0" width="800.018" height="800.799"></rect>
  <path class="st1" d="M611.955,190.036c-54.163-54.209-126.195-84.077-202.94-84.108-158.127,0-286.823,128.647-286.886,286.775-.02,50.546,13.19,99.886,38.295,143.377l-40.7,148.616,152.082-39.88c41.903,22.847,89.08,34.888,137.095,34.908h.118c158.111,0,286.819-128.662,286.883-286.792.03-76.63-29.782-148.687-83.947-202.895h0ZM409.019,631.287h-.098c-42.787-.016-84.752-11.507-121.362-33.226l-8.708-5.166-90.248,23.666,24.089-87.962-5.671-9.019c-23.869-37.952-36.475-81.82-36.456-126.859.052-131.429,107.02-238.356,238.546-238.356,63.688.024,123.558,24.852,168.577,69.908s69.798,104.947,69.775,168.64c-.052,131.44-107.019,238.373-238.445,238.373h0ZM539.812,452.759c-7.17-3.587-42.411-20.923-48.982-23.315-6.57-2.392-11.348-3.587-16.129,3.587-4.777,7.173-18.515,23.315-22.698,28.097-4.181,4.783-8.362,5.381-15.53,1.794-7.169-3.587-30.266-11.154-57.645-35.567-21.309-18.999-35.696-42.468-39.877-49.643-4.181-7.174-.445-11.052,3.144-14.625,3.224-3.21,7.168-8.37,10.752-12.554,3.584-4.184,4.779-7.174,7.168-11.956,2.39-4.783,1.195-8.968-.598-12.555-1.791-3.587-16.128-38.859-22.102-53.206-5.818-13.973-11.729-12.083-16.129-12.302-4.177-.208-8.96-.252-13.738-.252s-12.545,1.793-19.115,8.967-25.088,24.511-25.088,59.782,25.685,69.347,29.27,74.129c3.584,4.783,50.546,77.165,122.454,108.205,17.103,7.383,30.455,11.792,40.866,15.095,17.172,5.452,32.798,4.684,45.151,2.839,13.772-2.057,42.409-17.335,48.384-34.074,5.973-16.74,5.973-31.087,4.181-34.076s-6.57-4.783-13.738-8.37h0Z"></path>
</svg>