<svg width="77" height="71" viewBox="0 0 77 71" fill="none" xmlns="http://www.w3.org/2000/svg">
<path d="M1.10786 71H75.8921C76.5011 71 77 70.4977 77 69.8845C77 69.2714 76.5084 68.7542 75.9068 68.7542H70.5143V28.434H71.0278C73.4343 28.434 75.3932 26.4616 75.3932 24.0385C75.3932 21.6154 73.4343 19.643 71.0278 19.643H66.8532L66.7284 19.318C62.1796 7.76412 50.8369 0 38.4963 0C26.1558 0 14.8351 7.76412 10.2789 19.318L10.1542 19.643H5.98685C3.58037 19.643 1.62144 21.6154 1.62144 24.0385C1.62144 26.4616 3.58037 28.434 5.98685 28.434H6.50043V68.7542H1.10786C0.498904 68.7542 0 69.2566 0 69.8697C0 70.4829 0.506241 71 1.10786 71ZM14.6296 68.7542H8.72349V56.2622H14.6296V68.7542ZM22.7662 68.7542H16.86V56.2622H22.7662V68.7542ZM22.7662 54.0164H8.73082V28.4266H22.7662V54.0164ZM52.0328 68.7542H24.9819V28.434H52.0328V68.7542ZM60.1473 68.7542H54.2412V56.2622H60.1473V68.7542ZM68.2839 68.7542H62.3777V56.2622H68.2839V68.7542ZM68.2839 54.0164H54.2485V28.4266H68.2839V54.0164ZM12.8468 18.9117C16.4785 10.8299 26.6914 2.23099 38.4817 2.23099C53.5222 2.23099 60.7343 11.3027 64.1385 18.9117L64.4614 19.643H12.5166L12.8468 18.9117ZM5.98685 26.1882C4.81296 26.1882 3.85183 25.2205 3.85183 24.0385C3.85183 22.8565 4.81296 21.8888 5.98685 21.8888H71.0132C72.187 21.8888 73.1482 22.8565 73.1482 24.0385C73.1482 25.2205 72.187 26.1882 71.0132 26.1882H5.98685Z" fill="white"/>
</svg>
