<svg width="37" height="37" viewBox="0 0 37 37" fill="none" xmlns="http://www.w3.org/2000/svg">
<path d="M9.97438 18.3936C10.0042 20.6637 10.9172 22.7794 12.5523 24.3661C14.1873 25.9528 16.3475 26.8026 18.6151 26.7729C23.2517 26.7135 27.029 22.9042 27.029 18.2807C27.017 16.0046 26.11 13.8592 24.475 12.2547C22.8578 10.662 20.7156 9.78842 18.442 9.78842H18.3883C16.1088 9.81814 13.9785 10.7274 12.3911 12.3557C10.8038 13.9781 9.94455 16.1234 9.97438 18.3936ZM18.5673 11.4286C22.2969 11.4821 25.3283 14.5486 25.3283 18.2628C25.2985 22.0424 22.2014 25.097 18.4181 25.097H18.3644C14.5812 25.0376 11.5498 21.9295 11.6035 18.1618C11.6333 16.3374 12.3732 14.6318 13.6861 13.36C14.9989 12.0883 16.7413 11.4108 18.5673 11.4286Z" fill="#2C3654" stroke="#2C3654" stroke-width="2"/>
<path d="M1 10.5679V26.1261C1.00597 31.3974 5.31437 35.688 10.6074 35.694H26.0866C31.3796 35.694 35.688 31.3974 35.694 26.1261V10.5679C35.6821 5.30258 31.3737 1.01189 26.0866 1H10.6074C5.31437 1 1 5.29663 1 10.5679ZM10.6074 2.67587H26.0866C30.4487 2.68181 34.0052 6.22371 34.0112 10.5679V26.1261C33.9993 30.4703 30.4487 34.0062 26.0866 34.0122H10.6074C6.24527 34.0122 2.68875 30.4703 2.68278 26.1261V10.5679C2.68875 6.22371 6.24527 2.68181 10.6074 2.67587Z" fill="#2C3654" stroke="#2C3654" stroke-width="2"/>
<path d="M29.417 8.5111C29.417 7.76825 28.8143 7.16803 28.0683 7.16803C27.3224 7.16803 26.7197 7.76825 26.7197 8.5111C26.7197 9.25395 27.3224 9.85417 28.0683 9.85417C28.8143 9.85417 29.417 9.25395 29.417 8.5111Z" fill="#2C3654" stroke="#2C3654" stroke-width="2"/>
</svg>
